<svg xmlns="http://www.w3.org/2000/svg" width="25" height="24" viewBox="0 0 25 24" fill="none">
  <g clip-path="url(#clip0_3332_2810)">
    <path d="M16.2291 0.813522L7.77211 0.911562C3.47766 0.961347 0.0386361 4.33442 0.0863154 8.44724L0.266617 24.0001L16.4957 23.812C20.7873 23.7622 24.2264 20.3891 24.1787 16.2763L24.0847 8.17173C24.0371 4.0589 20.5208 0.76646 16.2291 0.816212L16.2291 0.813522ZM20.0738 15.9661C20.0974 18.0077 18.3904 19.682 16.26 19.7067L8.54686 19.7961C6.41648 19.8208 4.6711 18.1866 4.64743 16.1449L4.56174 8.75316C4.53807 6.71155 6.2451 5.03726 8.37548 5.01256L16.0886 4.92315C18.219 4.89845 19.9644 6.53271 19.9881 8.57433L20.0738 15.9661Z" fill="url(#paint0_linear_3332_2810)"/>
    <path d="M10.6342 9.35783C10.6248 8.54786 9.831 7.90036 8.8612 7.9116C7.8914 7.92285 7.11284 8.58857 7.12223 9.39854L7.15975 12.6357C7.16914 13.4457 7.96293 14.0932 8.93274 14.0819C9.90254 14.0707 10.6811 13.405 10.6717 12.595L10.6342 9.35783Z" fill="url(#paint1_linear_3332_2810)"/>
    <path d="M17.6581 9.27641C17.6487 8.46644 16.8549 7.81894 15.8851 7.83018C14.9153 7.84143 14.1368 8.50715 14.1462 9.31712L14.1837 12.5543C14.1931 13.3642 14.9869 14.0117 15.9567 14.0005C16.9265 13.9893 17.705 13.3235 17.6956 12.5136L17.6581 9.27641Z" fill="url(#paint2_linear_3332_2810)"/>
  </g>
  <defs>
    <linearGradient id="paint0_linear_3332_2810" x1="-1.68036" y1="1.58609" x2="22.6523" y2="26.3945" gradientUnits="userSpaceOnUse">
      <stop stop-color="#99CEF1"/>
      <stop offset="0.31" stop-color="#8B8EC5"/>
      <stop offset="0.69" stop-color="#E8704E"/>
      <stop offset="1" stop-color="#FCC45C"/>
    </linearGradient>
    <linearGradient id="paint1_linear_3332_2810" x1="6.017" y1="8.64848" x2="10.7741" y2="14.2119" gradientUnits="userSpaceOnUse">
      <stop stop-color="#99CEF1"/>
      <stop offset="0.31" stop-color="#8B8EC5"/>
      <stop offset="0.69" stop-color="#E8704E"/>
      <stop offset="1" stop-color="#FCC45C"/>
    </linearGradient>
    <linearGradient id="paint2_linear_3332_2810" x1="13.0409" y1="8.56706" x2="17.798" y2="14.1305" gradientUnits="userSpaceOnUse">
      <stop stop-color="#99CEF1"/>
      <stop offset="0.31" stop-color="#8B8EC5"/>
      <stop offset="0.69" stop-color="#E8704E"/>
      <stop offset="1" stop-color="#FCC45C"/>
    </linearGradient>
    <clipPath id="clip0_3332_2810">
      <rect width="24" height="23" fill="white" transform="translate(0 1.00166) rotate(-0.66419)"/>
    </clipPath>
  </defs>
</svg>