<?xml version="1.0" encoding="utf-8"?>
<svg viewBox="0 0 500 500" xmlns="http://www.w3.org/2000/svg" xmlns:bx="https://boxy-svg.com">
  <defs>
    <linearGradient id="paint0_linear_4_6263" x1="5.86158" y1="53.4829" x2="48.2885" y2="95.5111" gradientUnits="userSpaceOnUse" gradientTransform="matrix(0.977368, 0, 0, 0.977368, 0.158423, 1.233436)">
      <stop offset="0.1" stop-color="#99CEF1"/>
      <stop offset="0.41" stop-color="#8B8EC5"/>
      <stop offset="0.63" stop-color="#E8704E"/>
      <stop offset="0.94" stop-color="#FCC45C"/>
    </linearGradient>
    <bx:grid x="0" y="0" width="99.424" height="104.032"/>
  </defs>
  <g clip-path="url(#clip0_4_6263)" transform="matrix(11.747842, 0, 0, 11.747842, -72.234894, -630.257385)">
    <path d="M 38.682 63.615 C 37.976 58.474 33.608 54.506 28.313 54.506 L 28.329 54.5 L 17.462 54.5 C 11.684 54.5 7 59.228 7 65.061 L 7 76.042 C 7 81.29 10.786 85.641 15.755 86.467 C 16.461 91.608 20.828 95.572 26.12 95.572 L 26.104 95.579 L 36.972 95.579 C 42.749 95.579 47.433 90.85 47.433 85.017 L 47.433 74.037 C 47.433 68.786 43.647 64.438 38.678 63.612 L 38.682 63.615 Z M 40.098 83.745 C 40.098 86.176 38.144 88.148 35.738 88.148 L 27.36 88.148 C 24.953 88.148 22.999 86.176 22.999 83.745 L 22.999 81.712 C 22.999 81.402 22.935 81.105 22.821 80.838 C 22.577 79.889 21.727 79.195 20.716 79.195 L 18.702 79.195 C 16.294 79.195 14.341 77.222 14.341 74.792 L 14.341 66.336 C 14.341 63.905 16.294 61.933 18.702 61.933 L 27.079 61.933 C 29.487 61.933 31.441 63.905 31.441 66.336 L 31.441 68.369 C 31.441 68.679 31.504 68.976 31.619 69.244 C 31.862 70.193 32.713 70.887 33.723 70.887 L 35.738 70.887 C 38.144 70.887 40.098 72.858 40.098 75.289 L 40.098 83.745 Z" fill="url(#paint0_linear_4_6263)"/>
  </g>
</svg>