<svg xmlns="http://www.w3.org/2000/svg" fill="none" viewBox="7 54.5 217 42.13">
<path d="M69.2308 96.6279C66.4929 96.6279 64.0782 96.1145 61.9867 95.0878C59.9333 94.0611 58.3172 92.578 57.1383 90.6387C55.9975 88.6613 55.3701 86.2846 55.256 83.5087C55.218 82.9383 55.199 82.1967 55.199 81.2841C55.199 80.3334 55.218 79.5539 55.256 78.9455C55.3701 76.1695 55.9975 73.8119 57.1383 71.8725C58.3172 69.8951 59.9333 68.3931 61.9867 67.3663C64.0782 66.3396 66.4929 65.8263 69.2308 65.8263C71.6645 65.8263 73.737 66.1685 75.4482 66.853C77.1594 67.5375 78.5664 68.3931 79.6691 69.4198C80.7719 70.4465 81.5895 71.5303 82.1219 72.6711C82.6923 73.7738 82.9965 74.7815 83.0345 75.6942C83.0725 76.1125 82.9394 76.4547 82.6352 76.7209C82.369 76.9491 82.0458 77.0631 81.6655 77.0631H76.646C76.2657 77.0631 75.9615 76.9681 75.7334 76.7779C75.5432 76.5878 75.3531 76.3026 75.163 75.9223C74.5926 74.4013 73.832 73.3365 72.8814 72.7281C71.9687 72.0816 70.7899 71.7584 69.3449 71.7584C67.4436 71.7584 65.9225 72.3668 64.7817 73.5837C63.6789 74.7625 63.0895 76.6449 63.0135 79.2307C62.9374 80.6757 62.9374 82.0066 63.0135 83.2235C63.0895 85.8473 63.6789 87.7486 64.7817 88.9275C65.9225 90.1063 67.4436 90.6957 69.3449 90.6957C70.8279 90.6957 72.0258 90.3915 72.9384 89.7831C73.8511 89.1366 74.5926 88.0529 75.163 86.5318C75.3531 86.1515 75.5432 85.8663 75.7334 85.6762C75.9615 85.4861 76.2657 85.391 76.646 85.391H81.6655C82.0458 85.391 82.369 85.5241 82.6352 85.7903C82.9394 86.0184 83.0725 86.3417 83.0345 86.7599C82.9965 87.4444 82.8063 88.224 82.4641 89.0986C82.1599 89.9352 81.6465 90.8098 80.924 91.7224C80.2395 92.597 79.3649 93.4146 78.3002 94.1751C77.2354 94.8977 75.9425 95.4871 74.4215 95.9434C72.9384 96.3997 71.2082 96.6279 69.2308 96.6279Z" fill="#1C1C1C"/>
<path d="M97.1399 96.6279C94.8202 96.6279 92.8048 96.1145 91.0936 95.0878C89.4205 94.023 88.1275 92.54 87.2149 90.6387C86.3023 88.6993 85.8459 86.4177 85.8459 83.7939V67.7656C85.8459 67.3854 85.979 67.0621 86.2452 66.7959C86.5114 66.5298 86.8346 66.3967 87.2149 66.3967H92.2344C92.6527 66.3967 92.9759 66.5298 93.2041 66.7959C93.4703 67.0621 93.6034 67.3854 93.6034 67.7656V83.4516C93.6034 88.1669 95.6758 90.5246 99.8207 90.5246C101.798 90.5246 103.357 89.8971 104.498 88.6423C105.677 87.3874 106.266 85.6572 106.266 83.4516V67.7656C106.266 67.3854 106.399 67.0621 106.666 66.7959C106.932 66.5298 107.255 66.3967 107.635 66.3967H112.655C113.035 66.3967 113.358 66.5298 113.624 66.7959C113.891 67.0621 114.024 67.3854 114.024 67.7656V94.6885C114.024 95.0688 113.891 95.392 113.624 95.6582C113.358 95.9244 113.035 96.0575 112.655 96.0575H108.035C107.616 96.0575 107.274 95.9244 107.008 95.6582C106.78 95.392 106.666 95.0688 106.666 94.6885V92.3499C105.639 93.6808 104.365 94.7265 102.844 95.4871C101.323 96.2476 99.4215 96.6279 97.1399 96.6279Z" fill="#1C1C1C"/>
<path d="M127.319 96.6279C125.342 96.6279 123.555 96.2476 121.958 95.4871C120.36 94.6885 119.087 93.6428 118.136 92.3499C117.223 91.0189 116.767 89.5359 116.767 87.9007C116.767 85.2389 117.832 83.1284 119.961 81.5693C122.129 79.9722 124.981 78.9074 128.517 78.3751L136.332 77.2343V76.0364C136.332 74.4393 135.932 73.2034 135.134 72.3288C134.335 71.4542 132.966 71.0169 131.027 71.0169C129.658 71.0169 128.536 71.3021 127.662 71.8725C126.825 72.4049 126.198 73.1274 125.779 74.04C125.475 74.5344 125.038 74.7815 124.467 74.7815H119.961C119.543 74.7815 119.22 74.6675 118.992 74.4393C118.801 74.2111 118.706 73.9069 118.706 73.5267C118.744 72.9182 118.992 72.1767 119.448 71.3021C119.904 70.4275 120.627 69.5909 121.615 68.7923C122.604 67.9558 123.878 67.2523 125.437 66.6819C126.996 66.1115 128.878 65.8263 131.084 65.8263C133.48 65.8263 135.495 66.1305 137.13 66.7389C138.803 67.3093 140.134 68.0889 141.123 69.0775C142.112 70.0662 142.834 71.2261 143.291 72.557C143.747 73.8879 143.975 75.2949 143.975 76.7779V94.6885C143.975 95.0688 143.842 95.392 143.576 95.6582C143.31 95.9244 142.986 96.0575 142.606 96.0575H137.986C137.568 96.0575 137.225 95.9244 136.959 95.6582C136.731 95.392 136.617 95.0688 136.617 94.6885V92.4639C136.123 93.1865 135.457 93.8709 134.62 94.5174C133.784 95.1258 132.757 95.6392 131.54 96.0575C130.362 96.4377 128.955 96.6279 127.319 96.6279ZM129.259 91.2091C130.59 91.2091 131.788 90.9239 132.852 90.3535C133.955 89.7831 134.811 88.9085 135.419 87.7296C136.066 86.5128 136.389 84.9917 136.389 83.1664V81.9686L130.685 82.8812C128.441 83.2235 126.768 83.7749 125.665 84.5354C124.562 85.2959 124.011 86.2276 124.011 87.3303C124.011 88.1669 124.258 88.8894 124.753 89.4979C125.285 90.0683 125.95 90.5056 126.749 90.8098C127.548 91.076 128.384 91.2091 129.259 91.2091Z" fill="#1C1C1C"/>
<path d="M149.867 96.0575C149.486 96.0575 149.163 95.9244 148.897 95.6582C148.631 95.392 148.498 95.0688 148.498 94.6885V56.928C148.498 56.5478 148.631 56.2245 148.897 55.9583C149.163 55.6922 149.486 55.5591 149.867 55.5591H154.601C154.981 55.5591 155.304 55.6922 155.571 55.9583C155.837 56.2245 155.97 56.5478 155.97 56.928V94.6885C155.97 95.0688 155.837 95.392 155.571 95.6582C155.304 95.9244 154.981 96.0575 154.601 96.0575H149.867Z" fill="#1C1C1C"/>
<path d="M163.279 96.0575C162.898 96.0575 162.575 95.9244 162.309 95.6582C162.043 95.392 161.91 95.0688 161.91 94.6885V67.7656C161.91 67.3854 162.043 67.0621 162.309 66.7959C162.575 66.5298 162.898 66.3967 163.279 66.3967H168.013C168.431 66.3967 168.754 66.5298 168.983 66.7959C169.249 67.0621 169.382 67.3854 169.382 67.7656V94.6885C169.382 95.0688 169.249 95.392 168.983 95.6582C168.754 95.9244 168.431 96.0575 168.013 96.0575H163.279ZM163.05 61.4912C162.632 61.4912 162.29 61.3771 162.024 61.149C161.796 60.8828 161.682 60.5406 161.682 60.1223V56.0154C161.682 55.6351 161.796 55.3119 162.024 55.0457C162.29 54.7795 162.632 54.6464 163.05 54.6464H168.241C168.659 54.6464 169.002 54.7795 169.268 55.0457C169.534 55.3119 169.667 55.6351 169.667 56.0154V60.1223C169.667 60.5406 169.534 60.8828 169.268 61.149C169.002 61.3771 168.659 61.4912 168.241 61.4912H163.05Z" fill="#1C1C1C"/>
<path d="M175.124 96.0575C174.744 96.0575 174.421 95.9244 174.155 95.6582C173.888 95.392 173.755 95.0688 173.755 94.6885V89.0415C173.755 88.6233 173.888 88.281 174.155 88.0148C174.421 87.7486 174.744 87.6155 175.124 87.6155H180.828C181.209 87.6155 181.532 87.7486 181.798 88.0148C182.064 88.281 182.197 88.6233 182.197 89.0415V94.6885C182.197 95.0688 182.064 95.392 181.798 95.6582C181.532 95.9244 181.209 96.0575 180.828 96.0575H175.124Z" fill="#1C1C1C"/>
<path d="M195.121 96.6279C193.144 96.6279 191.357 96.2476 189.759 95.4871C188.162 94.6885 186.888 93.6428 185.938 92.3499C185.025 91.0189 184.569 89.5359 184.569 87.9007C184.569 85.2389 185.634 83.1284 187.763 81.5693C189.931 79.9722 192.783 78.9074 196.319 78.3751L204.134 77.2343V76.0364C204.134 74.4393 203.734 73.2034 202.936 72.3288C202.137 71.4542 200.768 71.0169 198.829 71.0169C197.46 71.0169 196.338 71.3021 195.463 71.8725C194.627 72.4049 193.999 73.1274 193.581 74.04C193.277 74.5344 192.84 74.7815 192.269 74.7815H187.763C187.345 74.7815 187.022 74.6675 186.793 74.4393C186.603 74.2111 186.508 73.9069 186.508 73.5267C186.546 72.9182 186.793 72.1767 187.25 71.3021C187.706 70.4275 188.429 69.5909 189.417 68.7923C190.406 67.9558 191.68 67.2523 193.239 66.6819C194.798 66.1115 196.68 65.8263 198.886 65.8263C201.282 65.8263 203.297 66.1305 204.932 66.7389C206.605 67.3093 207.936 68.0889 208.925 69.0775C209.914 70.0662 210.636 71.2261 211.092 72.557C211.549 73.8879 211.777 75.2949 211.777 76.7779V94.6885C211.777 95.0688 211.644 95.392 211.378 95.6582C211.111 95.9244 210.788 96.0575 210.408 96.0575H205.788C205.369 96.0575 205.027 95.9244 204.761 95.6582C204.533 95.392 204.419 95.0688 204.419 94.6885V92.4639C203.924 93.1865 203.259 93.8709 202.422 94.5174C201.586 95.1258 200.559 95.6392 199.342 96.0575C198.163 96.4377 196.756 96.6279 195.121 96.6279ZM197.061 91.2091C198.392 91.2091 199.589 90.9239 200.654 90.3535C201.757 89.7831 202.612 88.9085 203.221 87.7296C203.867 86.5128 204.191 84.9917 204.191 83.1664V81.9686L198.487 82.8812C196.243 83.2235 194.57 83.7749 193.467 84.5354C192.364 85.2959 191.813 86.2276 191.813 87.3303C191.813 88.1669 192.06 88.8894 192.554 89.4979C193.087 90.0683 193.752 90.5056 194.551 90.8098C195.349 91.076 196.186 91.2091 197.061 91.2091Z" fill="#1C1C1C"/>
<path d="M217.611 96.0575C217.231 96.0575 216.908 95.9244 216.642 95.6582C216.376 95.392 216.243 95.0688 216.243 94.6885V67.7656C216.243 67.3854 216.376 67.0621 216.642 66.7959C216.908 66.5298 217.231 66.3967 217.611 66.3967H222.346C222.764 66.3967 223.087 66.5298 223.315 66.7959C223.582 67.0621 223.715 67.3854 223.715 67.7656V94.6885C223.715 95.0688 223.582 95.392 223.315 95.6582C223.087 95.9244 222.764 96.0575 222.346 96.0575H217.611ZM217.383 61.4912C216.965 61.4912 216.623 61.3771 216.357 61.149C216.128 60.8828 216.014 60.5406 216.014 60.1223V56.0154C216.014 55.6351 216.128 55.3119 216.357 55.0457C216.623 54.7795 216.965 54.6464 217.383 54.6464H222.574C222.992 54.6464 223.334 54.7795 223.601 55.0457C223.867 55.3119 224 55.6351 224 56.0154V60.1223C224 60.5406 223.867 60.8828 223.601 61.149C223.334 61.3771 222.992 61.4912 222.574 61.4912H217.383Z" fill="#1C1C1C"/>
<g clip-path="url(#clip0_4_6263)">
<path d="M39.4156 63.8259C38.6927 58.5652 34.224 54.5066 28.8067 54.5066L28.8231 54.5H17.7038C11.7925 54.5 7 59.338 7 65.3054V76.54C7 81.9097 10.8733 86.3613 15.9569 87.2067C16.6799 92.4673 21.1485 96.5226 26.5626 96.5226L26.5462 96.5293H37.6655C43.5768 96.5293 48.3693 91.6913 48.3693 85.7239V74.4892C48.3693 69.1163 44.496 64.668 39.4124 63.8226L39.4156 63.8259ZM40.8648 84.4228C40.8648 86.9095 38.866 88.9272 36.4027 88.9272H27.8318C25.3685 88.9272 23.3697 86.9095 23.3697 84.4228V82.3423C23.3697 82.0252 23.3043 81.7214 23.1866 81.4473C22.9379 80.4764 22.0678 79.7664 21.034 79.7664H18.9731C16.5098 79.7664 14.511 77.7487 14.511 75.262V66.6098C14.511 64.1231 16.5098 62.1054 18.9731 62.1054H27.544C30.0073 62.1054 32.0061 64.1231 32.0061 66.6098V68.6903C32.0061 69.0073 32.0715 69.3111 32.1893 69.5852C32.4379 70.5561 33.3081 71.2661 34.3418 71.2661H36.4027C38.866 71.2661 40.8648 73.2839 40.8648 75.7706V84.4228Z" fill="url(#paint0_linear_4_6263)"/>
</g>
<defs>
<linearGradient id="paint0_linear_4_6263" x1="5.86158" y1="53.4829" x2="48.2885" y2="95.5111" gradientUnits="userSpaceOnUse">
<stop offset="0.1" stop-color="#99CEF1"/>
<stop offset="0.41" stop-color="#8B8EC5"/>
<stop offset="0.63" stop-color="#E8704E"/>
<stop offset="0.94" stop-color="#FCC45C"/>
</linearGradient>
<clipPath id="clip0_4_6263">
<rect width="41.3725" height="42.0293" fill="white" transform="translate(7 54.5)"/>
</clipPath>
</defs>
</svg>